<svg id="Calque_1" data-name="Calque 1" xmlns="http://www.w3.org/2000/svg" viewBox="0 0 11 14.75"><defs><style>.cls-1{fill:#fff;}.cls-2{fill:none;stroke:#fff;stroke-miterlimit:10;}</style></defs><title>Christelle</title><path class="cls-1" d="M7.9,5.57A2.4,2.4,0,1,0,5.5,8,2.39,2.39,0,0,0,7.9,5.57ZM5.5.69a5,5,0,0,1,5,5c0,2.75-2.42,5.85-5,8.38-2.61-2.61-5-5.63-5-8.38A5,5,0,0,1,5.5.69Z"/><path class="cls-2" d="M10.49,5.68c0,2.75-2.42,5.85-5,8.38-2.61-2.61-5-5.63-5-8.38a5,5,0,1,1,10,0Z"/><circle class="cls-2" cx="5.5" cy="5.57" r="2.4"/></svg>