<svg id="Calque_1" data-name="Calque 1" xmlns="http://www.w3.org/2000/svg" viewBox="0 0 19.21 18"><defs><style>.cls-1{fill:#f4b575;}</style></defs><title>Christelle</title><path class="cls-1" d="M.6,4.8h.6V8.4H.6A.6.6,0,0,1,0,7.8V5.4a.6.6,0,0,1,.6-.6Zm18,0H18V8.4h.6a.6.6,0,0,0,.6-.6V5.4a.6.6,0,0,0-.6-.6Zm-1.8-1.2V14.41a1.2,1.2,0,0,1-1.2,1.2v1.2a1.2,1.2,0,0,1-1.2,1.2H13.2a1.2,1.2,0,0,1-1.2-1.2v-1.2H7.2v1.2A1.2,1.2,0,0,1,6,18H4.8a1.2,1.2,0,0,1-1.2-1.2v-1.2a1.2,1.2,0,0,1-1.2-1.2V3.6A3.6,3.6,0,0,1,6,0h7.2a3.61,3.61,0,0,1,3.61,3.6ZM7.2,2.4H12V1.2H7.2ZM6,13.2a1.2,1.2,0,1,0-1.2,1.21A1.2,1.2,0,0,0,6,13.2Zm9.61,0a1.21,1.21,0,1,0-1.2,1.21,1.2,1.2,0,0,0,1.2-1.21Zm0-9.6H3.6v7.2h12Zm0,0"/></svg>