<svg xmlns="http://www.w3.org/2000/svg" xmlns:xlink="http://www.w3.org/1999/xlink" width="375" height="667" viewBox="0 0 375 667">
  <defs>
    <linearGradient id="linear-gradient" x1="0.5" x2="0.5" y2="1" gradientUnits="objectBoundingBox">
      <stop offset="0" stop-color="#e59e55"/>
      <stop offset="1" stop-color="#ed6ea0"/>
      <stop offset="1" stop-color="#ad3bb1"/>
    </linearGradient>
    <filter id="Tracé_47" x="-46.801" y="-37.984" width="466.938" height="761.679" filterUnits="userSpaceOnUse">
      <feOffset dy="8" input="SourceAlpha"/>
      <feGaussianBlur stdDeviation="15" result="blur"/>
      <feFlood flood-opacity="0.18"/>
      <feComposite operator="in" in2="blur"/>
      <feComposite in="SourceGraphic"/>
    </filter>
    <clipPath id="clip-Home_10">
      <rect width="375" height="667"/>
    </clipPath>
  </defs>
  <g id="Home_10" data-name="Home – 10" clip-path="url(#clip-Home_10)">
    <rect width="375" height="667" fill="#fff"/>
    <g transform="matrix(1, 0, 0, 1, 0, 0)" filter="url(#Tracé_47)">
      <path id="Tracé_47-2" data-name="Tracé 47" d="M0-22.984H375.137V643.493S177.048,655.2,0,643.493C-4.053,640.123,0-22.984,0-22.984Z" transform="translate(0 22)" fill="url(#linear-gradient)"/>
    </g>
    <g id="Groupe_87" data-name="Groupe 87" transform="translate(-388.577 347.657)">
      <path id="Tracé_40" data-name="Tracé 40" d="M620.958-58.154c0,25.066-22.854,44.336-45.382,69.656-26.714-30.712-45.382-44.59-45.382-69.656a45.383,45.383,0,0,1,45.382-45.382A45.381,45.381,0,0,1,620.958-58.154Z" transform="translate(0 0)" fill="#fff"/>
      <g id="Groupe_74" data-name="Groupe 74" transform="translate(541.752 -75.388)">
        <path id="Tracé_41" data-name="Tracé 41" d="M562.329-60.568c1.183-4.493-.456-8.109-3.548-11.24-2.551-2.587-5.164-5.112-7.734-7.682a11.018,11.018,0,0,1-2.935-4.522c-.935-3.062-.86-5.985,1.414-8.513,2.339-2.606,5.408-2.776,8.389-1.883,6.245,1.867,10.337,5.985,11.81,12.474C571.438-73.365,567.684-66.69,562.329-60.568Z" transform="translate(-502.572 94.896)" fill="#e59e55"/>
        <path id="Tracé_42" data-name="Tracé 42" d="M533.757-79.352a17.263,17.263,0,0,1,13.256-15.074c4.027-.811,7.516.391,9.1,3.137,1.672,2.9,1.179,7.382-1.212,10.226-2.352,2.8-5.362,4.884-8.076,7.294-3.268,2.906-6.5,5.874-6.359,10.8C536.373-67.67,533.513-72.876,533.757-79.352Z" transform="translate(-533.743 95.393)" fill="#e59e55"/>
        <path id="Tracé_43" data-name="Tracé 43" d="M548.682-83.391c-3.994-.026-6.617-1.776-6.522-4.352.088-2.466,2.945-4.3,6.7-4.291,3.733.007,6.633,1.964,6.558,4.424C555.338-85.1,552.566-83.368,548.682-83.391Z" transform="translate(-514.741 101.357)" fill="#0b0909"/>
        <path id="Tracé_44" data-name="Tracé 44" d="M561.058-87.2c-5.437,5.089-17.312,3.023-20.032-2.088C547.356-84.824,554.035-84.485,561.058-87.2Z" transform="translate(-517.298 107.567)" fill="#291810"/>
        <path id="Tracé_45" data-name="Tracé 45" d="M555.511-88.428a14.636,14.636,0,0,1-5.242-1.5,1.1,1.1,0,0,1-.7-1.466c.293-.756.942-.635,1.525-.427a15.9,15.9,0,0,0,4.721,1.007c.944.036,2.332-.156,2.14,1.381C557.769-87.966,556.381-88.6,555.511-88.428Z" transform="translate(-498.217 101.485)" fill="#040405"/>
        <path id="Tracé_46" data-name="Tracé 46" d="M539.987-91.7a7.97,7.97,0,0,0,2.974-.306c.717-.309,1.463-.267,1.645.658.173.88-.521,1.342-1.228,1.394-1.89.14-3.792.163-5.688.179-.713,0-1.531-.153-1.443-1.1.088-.984.987-.788,1.652-.821C538.5-91.728,539.1-91.7,539.987-91.7Z" transform="translate(-528.104 101.025)" fill="#040405"/>
      </g>
    </g>
  </g>
</svg>
