<svg id="Calque_1" data-name="Calque 1" xmlns="http://www.w3.org/2000/svg" viewBox="0 0 19.2 16.66"><defs><style>.cls-1{fill:#fff;}</style></defs><title>Christelle</title><path class="cls-1" d="M12.8,2.9a1.44,1.44,0,1,0-1.44-1.44A1.43,1.43,0,0,0,12.8,2.9Zm2.4,5.76a4,4,0,1,0,4,4,4,4,0,0,0-4-4Zm0,6.8a2.8,2.8,0,1,1,2.8-2.8,2.83,2.83,0,0,1-2.8,2.8Zm-3.36-8.4H15.2V5.62H12.64L11.12,3A1.4,1.4,0,0,0,9,2.74l-3,3a1.32,1.32,0,0,0-.4,1,1.41,1.41,0,0,0,.64,1.2L9,9.46v4H10.4V8.26L8.64,6.9l1.84-1.84ZM4,8.66a4,4,0,0,0,0,8,4,4,0,0,0,0-8Zm0,6.8a2.8,2.8,0,0,1,0-5.6,2.8,2.8,0,0,1,0,5.6Zm0,0"/></svg>