<svg id="Calque_1" data-name="Calque 1" xmlns="http://www.w3.org/2000/svg" viewBox="0 0 37.57 42.49"><defs><style>.cls-1{fill:#fff;}</style></defs><title>Christelle</title><path class="cls-1" d="M37.12,15.53a.94.94,0,0,0-.92,0l-6,3.24V16a.93.93,0,0,0-.93-.93H27.74A8.34,8.34,0,1,0,14.38,6.6,6.29,6.29,0,1,0,5.07,15H4.22a.93.93,0,0,0-.93.93V20.2H.93a.93.93,0,0,0-.93.93v3.66a.93.93,0,0,0,.93.93H3.29V30a.93.93,0,0,0,.93.93h11l-5,9.68a.93.93,0,0,0,.4,1.25.84.84,0,0,0,.43.11.93.93,0,0,0,.83-.5L16.74,32l4.93,9.46a.92.92,0,0,0,.82.5.84.84,0,0,0,.43-.11.93.93,0,0,0,.4-1.25l-5.05-9.68h11a.93.93,0,0,0,.93-.93V27.17l6,3.24a.87.87,0,0,0,.44.11.91.91,0,0,0,.48-.13.93.93,0,0,0,.45-.8V16.33A.93.93,0,0,0,37.12,15.53ZM22.49,2.08A6.48,6.48,0,1,1,16,8.56,6.48,6.48,0,0,1,22.49,2.08ZM17.24,15H14a6.38,6.38,0,0,0,1.38-2.11A8.53,8.53,0,0,0,17.24,15ZM5.1,10.61A4.43,4.43,0,1,1,9.53,15,4.44,4.44,0,0,1,5.1,10.61ZM1.86,23.86v-1.8H3.29v1.8ZM28.32,29H5.15V16.91H28.32V29Zm7.39-1-5.53-3V20.87l5.53-3Z"/><path class="cls-1" d="M9.53,7.79a2.83,2.83,0,1,0,2.83,2.82A2.83,2.83,0,0,0,9.53,7.79Zm0,4a1.16,1.16,0,1,1,1.15-1.16A1.16,1.16,0,0,1,9.53,11.77Z"/><path class="cls-1" d="M22.49,12.62a4.06,4.06,0,1,0-4.06-4.06A4.06,4.06,0,0,0,22.49,12.62Zm0-6.26a2.2,2.2,0,1,1-2.2,2.2A2.21,2.21,0,0,1,22.49,6.36Z"/><path class="cls-1" d="M19.49,19.61H9.37a.89.89,0,0,0-.89.89v4.93a.88.88,0,0,0,.89.88H19.49a.87.87,0,0,0,.88-.88V20.5A.88.88,0,0,0,19.49,19.61Zm-.89,4.93H10.25V21.38H18.6Z"/><circle class="cls-1" cx="24.37" cy="21.43" r="0.93"/><circle class="cls-1" cx="24.37" cy="24.5" r="0.93"/></svg>