<svg id="Calque_1" data-name="Calque 1" xmlns="http://www.w3.org/2000/svg" xmlns:xlink="http://www.w3.org/1999/xlink" viewBox="0 0 37.57 42.49"><defs><style>.cls-1{fill:none;}.cls-2{fill:#fff;}.cls-3{clip-path:url(#clip-path);}</style><clipPath id="clip-path"><rect class="cls-1" x="0.33" y="0.33" width="37.07" height="41.82"/></clipPath></defs><title>Christelle</title><path class="cls-2" d="M18,33l-.73-2.84a.81.81,0,1,0-1.58.4l.73,2.85a.82.82,0,0,0,.79.61.65.65,0,0,0,.2,0A.81.81,0,0,0,18,33Zm0,0"/><g class="cls-3"><path class="cls-2" d="M16,27.89a.84.84,0,0,0,.51-.81.82.82,0,0,0-.61-.73.8.8,0,0,0-.85.28A.82.82,0,0,0,16,27.89Zm0,0"/><path class="cls-2" d="M36.27,20.38l-1-2.95A6,6,0,0,0,23.83,21l3.69,12.81a5.22,5.22,0,0,1-9.74,3.65,3.91,3.91,0,0,0,2.76-4.74l-2.8-10.9h0l-1.44-5.6a9.47,9.47,0,0,0,1.45-1.86,9.28,9.28,0,0,0,1-7.06h0v0A9.32,9.32,0,0,0,.49,10.9v0A9.93,9.93,0,0,0,.7,12a9.33,9.33,0,0,0,6.44,6.63l4.24,16.5a3.93,3.93,0,0,0,3.79,2.94,3.6,3.6,0,0,0,1-.13h0a6.77,6.77,0,0,0,3.27,3.52,6.85,6.85,0,0,0,9.64-8L25.4,20.59a4.35,4.35,0,0,1,3.23-5.46A4.36,4.36,0,0,1,33.71,18l1,3a.82.82,0,1,0,1.54-.54ZM7.81,2.21A7.87,7.87,0,0,1,9.72,2,7.7,7.7,0,0,1,17,7.17,22.94,22.94,0,0,1,6.48,10.35a20.38,20.38,0,0,1-4.43-.24,7.7,7.7,0,0,1,5.76-7.9Zm-5.47,9.6a22.55,22.55,0,0,0,3,.2l1.13,0A24.49,24.49,0,0,0,17.37,8.84a7.71,7.71,0,0,1-1,4.73,8.14,8.14,0,0,1-1.48,1.81,8.54,8.54,0,0,1-1.39,1,7.82,7.82,0,0,1-1.61.67,6.86,6.86,0,0,1-1,.22,7.7,7.7,0,0,1-8.52-5.45ZM9.72,19a9.43,9.43,0,0,0,4.17-1c.35-.18.69-.38,1-.59L16,21.66a11.19,11.19,0,0,1-2.91,1.1,13.46,13.46,0,0,1-3.09.43L8.91,18.94a7.32,7.32,0,0,0,.81,0ZM13,34.7l-2.54-9.89a15.28,15.28,0,0,0,3.08-.46,13.75,13.75,0,0,0,2.92-1.06L19,33.16h0a2.27,2.27,0,0,1-1.64,2.77l-1.58.41A2.29,2.29,0,0,1,13,34.7Zm0,0"/><path class="cls-2" d="M37.38,23.6a.84.84,0,0,0-.69-.65A.82.82,0,0,0,36,24.32a.84.84,0,0,0,.91.2.85.85,0,0,0,.49-.92Zm0,0"/></g></svg>