<svg id="Calque_1" data-name="Calque 1" xmlns="http://www.w3.org/2000/svg" viewBox="0 0 28.73 36.95"><defs><style>.cls-1{fill:#fff;}.cls-2{fill:#e59e54;}.cls-3{fill:#0b0807;}.cls-4{fill:#362113;}</style></defs><title>Christelle</title><path class="cls-1" d="M28.73,14.37c0,7.93-7.23,14-14.36,22.05C5.91,26.69,0,22.3,0,14.37a14.37,14.37,0,1,1,28.73,0Z"/><path class="cls-2" d="M22.58,19.78a3.55,3.55,0,0,0-1.13-3.56c-.81-.82-1.63-1.62-2.45-2.43a3.58,3.58,0,0,1-.93-1.43,2.63,2.63,0,0,1,.45-2.7,2.4,2.4,0,0,1,2.66-.59A5.09,5.09,0,0,1,24.92,13C25.46,15.73,24.27,17.84,22.58,19.78Z"/><path class="cls-2" d="M3.66,14a5.46,5.46,0,0,1,4.2-4.77,2.58,2.58,0,0,1,2.88,1,3,3,0,0,1-.38,3.24A25.54,25.54,0,0,1,7.8,15.76c-1,.92-2.06,1.86-2,3.42A7.37,7.37,0,0,1,3.66,14Z"/><path class="cls-3" d="M14.4,14.6c-1.26,0-2.09-.56-2.06-1.38s.93-1.36,2.12-1.36,2.1.62,2.07,1.4S15.63,14.61,14.4,14.6Z"/><path class="cls-4" d="M17.51,15.36c-1.72,1.61-5.48,1-6.34-.66A6.37,6.37,0,0,0,17.51,15.36Z"/><path d="M21.8,13a4.47,4.47,0,0,1-1.66-.47.35.35,0,0,1-.23-.46c.1-.24.3-.21.49-.14a5,5,0,0,0,1.49.32c.3,0,.74,0,.68.44S22.07,13,21.8,13Z"/><path d="M7.42,11.86a2.68,2.68,0,0,0,.94-.09c.23-.1.46-.09.52.2s-.16.43-.39.45c-.59,0-1.2.05-1.8.05-.22,0-.48-.05-.45-.35s.31-.25.52-.26Z"/></svg>