<svg id="Calque_1" data-name="Calque 1" xmlns="http://www.w3.org/2000/svg" viewBox="0 0 20.25 20.21"><defs><style>.cls-1{fill:#efb15d;}</style></defs><title>Christelle</title><path class="cls-1" d="M10.14,20.21A10.11,10.11,0,1,1,10.63,0a10.19,10.19,0,0,1,9.61,10.37A10,10,0,0,1,10.14,20.21ZM1.28,10.11a8.8,8.8,0,0,0,17.59.06,8.89,8.89,0,0,0-9-8.91A8.9,8.9,0,0,0,1.28,10.11Z"/><path class="cls-1" d="M13.41,8.06c-.05.11-.12.21-.17.32L11,13c-.16.33-.32.64-.73.72a.75.75,0,0,1-.86-.34c-.2-.33-.36-.69-.54-1C8.26,11,7.63,9.74,7,8.46a1.23,1.23,0,0,0-.25-.36,1,1,0,0,0,0,.17c0,1.84,0,3.68,0,5.53a6.45,6.45,0,0,1-.06,1,.73.73,0,0,1-.83.63.73.73,0,0,1-.75-.66,1.82,1.82,0,0,1,0-.32V6a3,3,0,0,1,0-.52.84.84,0,0,1,.77-.71,2.26,2.26,0,0,1,.58,0,.76.76,0,0,1,.64.45c.29.55.6,1.08.87,1.64.69,1.41,1.36,2.83,2,4.25a2,2,0,0,0,.1.18c.08-.13.14-.23.19-.33.65-1.37,1.29-2.75,2-4.12.27-.57.57-1.12.88-1.67a1.11,1.11,0,0,1,1.22-.42.9.9,0,0,1,.76.86c0,.75,0,1.51,0,2.26v6.46a2.09,2.09,0,0,1,0,.35.76.76,0,0,1-.73.68.84.84,0,0,1-.85-.65,1.58,1.58,0,0,1,0-.38c0-2,0-4,0-6V8.07Z"/></svg>