<svg id="Calque_1" data-name="Calque 1" xmlns="http://www.w3.org/2000/svg" viewBox="0 0 29.24 42.49"><defs><style>.cls-1{fill:#fff;}</style></defs><title>Christelle</title><path class="cls-1" d="M15.32,19.61H5.2a.89.89,0,0,0-.89.89v4.93a.88.88,0,0,0,.89.88H15.32a.87.87,0,0,0,.88-.88V20.5A.88.88,0,0,0,15.32,19.61Zm-.88,4.93H6.08V21.38h8.36Z"/><circle class="cls-1" cx="20.2" cy="21.43" r="0.93"/><circle class="cls-1" cx="20.2" cy="24.5" r="0.93"/><path class="cls-1" d="M7.18,38.54H2L0,42.59H29.24l-2-4.05H22.06V32a5.34,5.34,0,0,0,1.17-2.22h4.24V25.59a4.78,4.78,0,0,0-2.93-4.38,3.39,3.39,0,0,0,.9-2.29A3.35,3.35,0,0,0,25,17.23a3.32,3.32,0,0,0,.46-1.69,3.38,3.38,0,0,0-2-3.09v-3a8.79,8.79,0,1,0-17.58,0v3a3.38,3.38,0,0,0-2,3.09,3.32,3.32,0,0,0,.46,1.69,3.35,3.35,0,0,0-.46,1.69,3.39,3.39,0,0,0,.9,2.29,4.78,4.78,0,0,0-2.93,4.38v4.15H6A5.34,5.34,0,0,0,7.18,32Zm19.87,2.7H2.19l.67-1.35H26.37ZM8.53,38.54V33.07a5.4,5.4,0,0,0,6.09-.46,5.4,5.4,0,0,0,6.09.46v5.47ZM5.61,16.81a2,2,0,0,1,1.06-3.22l.51-.13v-4a7.44,7.44,0,0,1,14.88,0v4l.51.13a2,2,0,0,1,1.06,3.22l-.34.42.34.43a2,2,0,0,1,.46,1.26,2,2,0,0,1-1.21,1.85l-4.88-1V18.57a6.08,6.08,0,0,0,2.71-5.06V7.43H19.35V8.78H17.89A3.92,3.92,0,0,1,15.1,7.63l-.48-.48-.48.48a3.92,3.92,0,0,1-2.79,1.15H9.89V7.43H8.53v6.08a6.08,6.08,0,0,0,2.71,5.06v1.16l-4.88,1a2,2,0,0,1-1.21-1.85,2,2,0,0,1,.46-1.26L6,17.23Zm4.28-3.3V10.13h1.46A5.26,5.26,0,0,0,14.62,9a5.26,5.26,0,0,0,3.27,1.12h1.46v3.38a4.73,4.73,0,1,1-9.46,0ZM3.12,28.39v-2.8A3.4,3.4,0,0,1,5.8,22.28l6.79-1.46V19.25a6.06,6.06,0,0,0,4.06,0v1.57l6.79,1.46a3.4,3.4,0,0,1,2.68,3.31v2.8H23.41a5.36,5.36,0,0,0-.22-1.54l-1.3.38a4.17,4.17,0,0,1,.17,1.16A4.06,4.06,0,0,1,18,32.45a4,4,0,0,1-2.9-1.22l-.48-.49-.48.49a4,4,0,0,1-2.9,1.22,4.06,4.06,0,0,1-4.06-4.06,4.17,4.17,0,0,1,.17-1.16l-1.3-.38a5.36,5.36,0,0,0-.22,1.54Zm0,0"/><path class="cls-1" d="M17.61,23.66h3.1V22.31H17.05l-1.56,1.55,1,.95Zm0,0"/><path class="cls-1" d="M12.79,24.81l1-.95-1.56-1.55H8.53v1.35h3.1Zm0,0"/></svg>