<svg id="Calque_1" data-name="Calque 1" xmlns="http://www.w3.org/2000/svg" xmlns:xlink="http://www.w3.org/1999/xlink" viewBox="0 0 12.42 12.12"><defs><style>.cls-1{fill:none;}.cls-2{clip-path:url(#clip-path);}.cls-3{fill:#8a8a8a;}</style><clipPath id="clip-path"><rect class="cls-1" width="12.42" height="12.42"/></clipPath></defs><title>Christelle</title><g class="cls-2"><path d="M9.4,8.16l.51,3a.39.39,0,0,1-.15.39.4.4,0,0,1-.42,0l-2.7-1.42a.86.86,0,0,0-.41-.1.9.9,0,0,0-.42.1L3.12,11.58a.4.4,0,0,1-.42,0,.42.42,0,0,1-.16-.39l.52-3a.89.89,0,0,0-.26-.79L.62,5.24a.38.38,0,0,1-.1-.4.39.39,0,0,1,.32-.27l3-.44a.91.91,0,0,0,.68-.49L5.87.91A.39.39,0,0,1,6.23.69a.38.38,0,0,1,.35.22L7.93,3.64a.9.9,0,0,0,.67.49l3,.44a.39.39,0,0,1,.32.27.4.4,0,0,1-.1.4L9.66,7.37a.86.86,0,0,0-.26.79Zm0,0"/><path class="cls-3" d="M11.69,4.08a.89.89,0,0,1,.72.61.87.87,0,0,1-.23.91L10,7.73a.41.41,0,0,0-.11.35l.51,3a.89.89,0,0,1-.35.87.85.85,0,0,1-.94.07L6.41,10.6a.4.4,0,0,0-.37,0L3.35,12a.9.9,0,0,1-1.3-.94l.51-3a.38.38,0,0,0-.11-.35L.27,5.6A.89.89,0,0,1,.76,4.08l3-.44a.4.4,0,0,0,.3-.22L5.43.69a.87.87,0,0,1,.8-.5.88.88,0,0,1,.8.5L8.38,3.42a.37.37,0,0,0,.29.22Z"/></g></svg>