<svg id="Calque_1" data-name="Calque 1" xmlns="http://www.w3.org/2000/svg" viewBox="0 0 48.11 42.49"><defs><style>.cls-1{fill:#fff;}</style></defs><title>Christelle</title><path class="cls-1" d="M46.8,28.21a.8.8,0,0,0,.8-.8V21.07a.79.79,0,0,0-.8-.79h-10l5-5a.79.79,0,0,0,0-1.12L37.48,9.83a.8.8,0,0,0-1.13,0,3.17,3.17,0,1,1-4.48-4.49.79.79,0,0,0,0-1.12L28.33.68a.8.8,0,0,0-1.13,0L7.6,20.28H.79a.79.79,0,0,0-.79.79v6.34a.8.8,0,0,0,.79.8,3.17,3.17,0,1,1,0,6.34.8.8,0,0,0-.79.8v6.34a.8.8,0,0,0,.79.8h46a.8.8,0,0,0,.8-.8V35.35a.8.8,0,0,0-.8-.8,3.17,3.17,0,0,1,0-6.34Zm-19-25.85,2.47,2.46a4.76,4.76,0,0,0,6.64,6.64l3.26,3.26-5.55,5.56H32.06l1.82-1.82a.8.8,0,0,0,0-1.13L25.15,8.61a.79.79,0,0,0-1.12,0L12.36,20.28H9.85ZM14.61,20.28l10-10L32.2,17.9l-2.38,2.38ZM46,36.08V40.9H39.66V37.73H38.08V40.9H9.52v-.79H7.93v.79H1.59V36.08a4.77,4.77,0,0,0,3.9-5.49,4.74,4.74,0,0,0-3.9-3.9V21.86H7.93v2.38H9.52V21.86H46v4.83a4.76,4.76,0,0,0,0,9.39Z"/><rect class="cls-1" x="38.08" y="23.45" width="1.59" height="3.17"/><rect class="cls-1" x="38.08" y="28.21" width="1.59" height="3.17"/><rect class="cls-1" x="38.08" y="32.97" width="1.59" height="3.17"/><rect class="cls-1" x="7.93" y="25.83" width="1.59" height="3.17"/><rect class="cls-1" x="7.93" y="30.59" width="1.59" height="3.17"/><rect class="cls-1" x="7.93" y="35.35" width="1.59" height="3.17"/><path class="cls-1" d="M34.9,25.83a1.59,1.59,0,0,1-1.58-1.59.79.79,0,0,0-.8-.79H15.07a.79.79,0,0,0-.79.79,1.59,1.59,0,0,1-1.59,1.59.79.79,0,0,0-.79.79v9.52a.79.79,0,0,0,.79.79,1.59,1.59,0,0,1,1.59,1.59.79.79,0,0,0,.79.79H32.52a.79.79,0,0,0,.8-.79,1.59,1.59,0,0,1,1.58-1.59.79.79,0,0,0,.8-.79V26.62A.79.79,0,0,0,34.9,25.83Zm-.79,9.62a3.17,3.17,0,0,0-2.28,2.28H15.77a3.21,3.21,0,0,0-2.28-2.28V27.32A3.24,3.24,0,0,0,15.77,25H31.83a3.21,3.21,0,0,0,2.28,2.28Z"/></svg>