<svg id="Calque_1" data-name="Calque 1" xmlns="http://www.w3.org/2000/svg" xmlns:xlink="http://www.w3.org/1999/xlink" viewBox="0 0 16.36 20.75"><defs><style>.cls-1{fill:none;}.cls-2{clip-path:url(#clip-path);}.cls-3{fill:#fff;}</style><clipPath id="clip-path"><rect class="cls-1" width="16.35" height="21.01"/></clipPath></defs><title>Christelle</title><g class="cls-2"><path class="cls-3" d="M16.28,19.44l-3-5.54a1.81,1.81,0,0,0,1.5-1.77V4a4,4,0,0,0-4-3.95H5.61a4,4,0,0,0-4,4v8.13a1.76,1.76,0,0,0,1.5,1.77l-3,5.54a.9.9,0,0,0,.36,1.23.7.7,0,0,0,.41.09.87.87,0,0,0,.77-.45l.28-.46H14.47l.27.46a.83.83,0,0,0,.77.45,1.21,1.21,0,0,0,.41-.09.9.9,0,0,0,.36-1.23ZM12,15.35H4.38L5.15,14h6.09Zm-.13-3A1.32,1.32,0,1,1,13.19,11a1.35,1.35,0,0,1-1.31,1.32ZM3.2,4.5A2.53,2.53,0,0,1,5.7,2h5A2.57,2.57,0,0,1,13.19,4.5V6.68a.87.87,0,0,1-.91.86H4.11a.86.86,0,0,1-.86-.86ZM4.52,9.63A1.32,1.32,0,1,1,3.2,11,1.32,1.32,0,0,1,4.52,9.63ZM2.66,18.49l1-1.77h9.09l1,1.77Zm0,0"/></g></svg>