<svg id="Calque_1" data-name="Calque 1" xmlns="http://www.w3.org/2000/svg" xmlns:xlink="http://www.w3.org/1999/xlink" viewBox="0 0 10.82 20.75"><defs><style>.cls-1{fill:none;}.cls-2{clip-path:url(#clip-path);}.cls-3{fill:#fff;}</style><clipPath id="clip-path"><rect class="cls-1" y="0.02" width="10.82" height="20.73"/></clipPath></defs><title>Christelle</title><g class="cls-2"><path class="cls-3" d="M4.91,3.36a1.56,1.56,0,0,0,1.14-.52,1.65,1.65,0,0,0,.44-1.19A1.66,1.66,0,0,0,6,.48,1.49,1.49,0,0,0,4.82,0,1.54,1.54,0,0,0,3.67.55a1.72,1.72,0,0,0-.46,1.19A1.54,1.54,0,0,0,3.72,2.9a1.56,1.56,0,0,0,1.19.46Zm0,0"/><path class="cls-3" d="M10.47,8.93,8.05,7.61l-2-3.17a1.74,1.74,0,0,0-1.41-.7,1.64,1.64,0,0,0-1.1.48l-3,3a.91.91,0,0,0-.17.39L0,11v.09a.73.73,0,0,0,.22.53.75.75,0,0,0,.53.22.67.67,0,0,0,.5-.22.92.92,0,0,0,.25-.49l.3-2.9L2.86,7.21l-1,8.1L.18,19.13a1.55,1.55,0,0,0-.09.49,1.1,1.1,0,0,0,.33.81,1,1,0,0,0,.81.29,1,1,0,0,0,1-.62L4.05,16a.5.5,0,0,1,0-.16,1.72,1.72,0,0,1,.09-.19.39.39,0,0,0,0-.18l.22-2L6.34,20a1,1,0,0,0,1.09.75,1,1,0,0,0,.77-.33,1.11,1.11,0,0,0,.33-.82.28.28,0,0,0,0-.11.52.52,0,0,1,0-.11l-2.64-9,.31-2.95.75,1.19a.92.92,0,0,0,.22.22l2.59,1.45a1.55,1.55,0,0,0,.35.09.66.66,0,0,0,.53-.25.77.77,0,0,0,.22-.55.67.67,0,0,0-.35-.61Zm0,0"/></g></svg>